<mxfile host="app.diagrams.net" modified="2024-02-19T13:42:40.666Z" agent="Mozilla/5.0 (Macintosh; Intel Mac OS X 10_15_7) AppleWebKit/537.36 (KHTML, like Gecko) Chrome/121.0.0.0 Safari/537.36" etag="G-IoxrKF06Fbb00Rs6-W" version="23.1.5" type="device">
  <diagram name="페이지-1" id="6Ciud2LX_YON1yYENwLM">
    <mxGraphModel dx="1900" dy="1121" grid="0" gridSize="10" guides="1" tooltips="1" connect="1" arrows="1" fold="1" page="1" pageScale="1" pageWidth="827" pageHeight="1169" math="0" shadow="0">
      <root>
        <mxCell id="0" />
        <mxCell id="1" parent="0" />
        <mxCell id="OnEs7zNqJqw-kV35xcPl-3" value="Control Plane" style="fillColor=default;strokeColor=default;dashed=0;verticalAlign=top;fontStyle=0;fontColor=#232F3D;whiteSpace=wrap;html=1;" parent="1" vertex="1">
          <mxGeometry x="74" y="233" width="160" height="130" as="geometry" />
        </mxCell>
        <mxCell id="OnEs7zNqJqw-kV35xcPl-1" value="" style="aspect=fixed;sketch=0;html=1;dashed=0;whitespace=wrap;fillColor=#2875E2;strokeColor=#ffffff;points=[[0.005,0.63,0],[0.1,0.2,0],[0.9,0.2,0],[0.5,0,0],[0.995,0.63,0],[0.72,0.99,0],[0.5,1,0],[0.28,0.99,0]];shape=mxgraph.kubernetes.icon2;prIcon=control_plane" parent="1" vertex="1">
          <mxGeometry x="64" y="208" width="50" height="48" as="geometry" />
        </mxCell>
        <mxCell id="OnEs7zNqJqw-kV35xcPl-5" value="" style="aspect=fixed;sketch=0;html=1;dashed=0;whitespace=wrap;fillColor=#2875E2;strokeColor=#ffffff;points=[[0.005,0.63,0],[0.1,0.2,0],[0.9,0.2,0],[0.5,0,0],[0.995,0.63,0],[0.72,0.99,0],[0.5,1,0],[0.28,0.99,0]];shape=mxgraph.kubernetes.icon2;kubernetesLabel=1;prIcon=api" parent="1" vertex="1">
          <mxGeometry x="129" y="274" width="50" height="48" as="geometry" />
        </mxCell>
        <mxCell id="OnEs7zNqJqw-kV35xcPl-6" value="&lt;span style=&quot;color: rgb(35, 47, 61); font-family: Helvetica; font-size: 12px; font-style: normal; font-variant-ligatures: normal; font-variant-caps: normal; font-weight: 400; letter-spacing: normal; orphans: 2; text-align: center; text-indent: 0px; text-transform: none; widows: 2; word-spacing: 0px; -webkit-text-stroke-width: 0px; background-color: rgb(251, 251, 251); text-decoration-thickness: initial; text-decoration-style: initial; text-decoration-color: initial; float: none; display: inline !important;&quot;&gt;VM&lt;/span&gt;" style="text;whiteSpace=wrap;html=1;" parent="1" vertex="1">
          <mxGeometry x="114" y="208" width="70" height="30" as="geometry" />
        </mxCell>
        <mxCell id="OnEs7zNqJqw-kV35xcPl-7" value="Data Plane" style="fillColor=default;strokeColor=default;dashed=0;verticalAlign=top;fontStyle=0;fontColor=#232F3D;whiteSpace=wrap;html=1;" parent="1" vertex="1">
          <mxGeometry x="334" y="193" width="430" height="235" as="geometry" />
        </mxCell>
        <mxCell id="OnEs7zNqJqw-kV35xcPl-10" value="&lt;span style=&quot;color: rgb(35, 47, 61); font-family: Helvetica; font-size: 12px; font-style: normal; font-variant-ligatures: normal; font-variant-caps: normal; font-weight: 400; letter-spacing: normal; orphans: 2; text-align: center; text-indent: 0px; text-transform: none; widows: 2; word-spacing: 0px; -webkit-text-stroke-width: 0px; background-color: rgb(251, 251, 251); text-decoration-thickness: initial; text-decoration-style: initial; text-decoration-color: initial; float: none; display: inline !important;&quot;&gt;VM&lt;/span&gt;" style="text;whiteSpace=wrap;html=1;" parent="1" vertex="1">
          <mxGeometry x="374" y="168" width="70" height="30" as="geometry" />
        </mxCell>
        <mxCell id="OnEs7zNqJqw-kV35xcPl-11" value="" style="aspect=fixed;sketch=0;html=1;dashed=0;whitespace=wrap;fillColor=#2875E2;strokeColor=#ffffff;points=[[0.005,0.63,0],[0.1,0.2,0],[0.9,0.2,0],[0.5,0,0],[0.995,0.63,0],[0.72,0.99,0],[0.5,1,0],[0.28,0.99,0]];shape=mxgraph.kubernetes.icon2;prIcon=node" parent="1" vertex="1">
          <mxGeometry x="324" y="168" width="50" height="48" as="geometry" />
        </mxCell>
        <mxCell id="OnEs7zNqJqw-kV35xcPl-15" value="" style="endArrow=classic;html=1;rounded=0;" parent="1" edge="1">
          <mxGeometry relative="1" as="geometry">
            <mxPoint x="344" y="307" as="sourcePoint" />
            <mxPoint x="229" y="307" as="targetPoint" />
          </mxGeometry>
        </mxCell>
        <mxCell id="OnEs7zNqJqw-kV35xcPl-16" value="apiserver" style="edgeLabel;resizable=0;html=1;align=center;verticalAlign=middle;" parent="OnEs7zNqJqw-kV35xcPl-15" connectable="0" vertex="1">
          <mxGeometry relative="1" as="geometry" />
        </mxCell>
        <mxCell id="OnEs7zNqJqw-kV35xcPl-18" value="ANY:6443" style="edgeLabel;resizable=0;html=1;align=right;verticalAlign=bottom;" parent="OnEs7zNqJqw-kV35xcPl-15" connectable="0" vertex="1">
          <mxGeometry x="1" relative="1" as="geometry" />
        </mxCell>
        <mxCell id="OnEs7zNqJqw-kV35xcPl-20" value="namespace" style="fillColor=default;strokeColor=default;dashed=1;verticalAlign=top;fontStyle=0;fontColor=#232F3D;whiteSpace=wrap;html=1;" parent="1" vertex="1">
          <mxGeometry x="344" y="218" width="410" height="200" as="geometry" />
        </mxCell>
        <mxCell id="OnEs7zNqJqw-kV35xcPl-21" value="" style="aspect=fixed;sketch=0;html=1;dashed=0;whitespace=wrap;fillColor=#2875E2;strokeColor=#ffffff;points=[[0.005,0.63,0],[0.1,0.2,0],[0.9,0.2,0],[0.5,0,0],[0.995,0.63,0],[0.72,0.99,0],[0.5,1,0],[0.28,0.99,0]];shape=mxgraph.kubernetes.icon2;kubernetesLabel=1;prIcon=svc" parent="1" vertex="1">
          <mxGeometry x="391" y="268" width="50" height="48" as="geometry" />
        </mxCell>
        <mxCell id="OnEs7zNqJqw-kV35xcPl-24" value="" style="aspect=fixed;sketch=0;html=1;dashed=0;whitespace=wrap;fillColor=#2875E2;strokeColor=#ffffff;points=[[0.005,0.63,0],[0.1,0.2,0],[0.9,0.2,0],[0.5,0,0],[0.995,0.63,0],[0.72,0.99,0],[0.5,1,0],[0.28,0.99,0]];shape=mxgraph.kubernetes.icon2;kubernetesLabel=1;prIcon=svc" parent="1" vertex="1">
          <mxGeometry x="577" y="268" width="50" height="48" as="geometry" />
        </mxCell>
        <mxCell id="OnEs7zNqJqw-kV35xcPl-26" value="" style="aspect=fixed;sketch=0;html=1;dashed=0;whitespace=wrap;fillColor=#2875E2;strokeColor=#ffffff;points=[[0.005,0.63,0],[0.1,0.2,0],[0.9,0.2,0],[0.5,0,0],[0.995,0.63,0],[0.72,0.99,0],[0.5,1,0],[0.28,0.99,0]];shape=mxgraph.kubernetes.icon2;kubernetesLabel=1;prIcon=pod" parent="1" vertex="1">
          <mxGeometry x="467" y="268" width="50" height="48" as="geometry" />
        </mxCell>
        <mxCell id="OnEs7zNqJqw-kV35xcPl-27" value="" style="aspect=fixed;sketch=0;html=1;dashed=0;whitespace=wrap;fillColor=#2875E2;strokeColor=#ffffff;points=[[0.005,0.63,0],[0.1,0.2,0],[0.9,0.2,0],[0.5,0,0],[0.995,0.63,0],[0.72,0.99,0],[0.5,1,0],[0.28,0.99,0]];shape=mxgraph.kubernetes.icon2;kubernetesLabel=1;prIcon=pod" parent="1" vertex="1">
          <mxGeometry x="657" y="238" width="50" height="48" as="geometry" />
        </mxCell>
        <mxCell id="OnEs7zNqJqw-kV35xcPl-28" value="" style="aspect=fixed;sketch=0;html=1;dashed=0;whitespace=wrap;fillColor=#2875E2;strokeColor=#ffffff;points=[[0.005,0.63,0],[0.1,0.2,0],[0.9,0.2,0],[0.5,0,0],[0.995,0.63,0],[0.72,0.99,0],[0.5,1,0],[0.28,0.99,0]];shape=mxgraph.kubernetes.icon2;kubernetesLabel=1;prIcon=pod" parent="1" vertex="1">
          <mxGeometry x="657" y="298" width="50" height="48" as="geometry" />
        </mxCell>
        <mxCell id="OnEs7zNqJqw-kV35xcPl-29" value="" style="endArrow=classic;html=1;rounded=0;entryX=0.5;entryY=0;entryDx=0;entryDy=0;entryPerimeter=0;" parent="1" target="OnEs7zNqJqw-kV35xcPl-21" edge="1">
          <mxGeometry width="50" height="50" relative="1" as="geometry">
            <mxPoint x="416" y="157" as="sourcePoint" />
            <mxPoint x="484" y="58" as="targetPoint" />
          </mxGeometry>
        </mxCell>
        <mxCell id="OnEs7zNqJqw-kV35xcPl-31" value="" style="endArrow=classic;html=1;rounded=0;entryX=0.005;entryY=0.63;entryDx=0;entryDy=0;entryPerimeter=0;exitX=0.995;exitY=0.63;exitDx=0;exitDy=0;exitPerimeter=0;" parent="1" source="OnEs7zNqJqw-kV35xcPl-21" target="OnEs7zNqJqw-kV35xcPl-26" edge="1">
          <mxGeometry width="50" height="50" relative="1" as="geometry">
            <mxPoint x="427" y="142" as="sourcePoint" />
            <mxPoint x="426" y="278" as="targetPoint" />
          </mxGeometry>
        </mxCell>
        <mxCell id="OnEs7zNqJqw-kV35xcPl-32" value="" style="endArrow=classic;html=1;rounded=0;exitX=0.995;exitY=0.63;exitDx=0;exitDy=0;exitPerimeter=0;entryX=0.005;entryY=0.63;entryDx=0;entryDy=0;entryPerimeter=0;" parent="1" source="OnEs7zNqJqw-kV35xcPl-26" target="OnEs7zNqJqw-kV35xcPl-24" edge="1">
          <mxGeometry width="50" height="50" relative="1" as="geometry">
            <mxPoint x="507" y="302" as="sourcePoint" />
            <mxPoint x="477" y="308" as="targetPoint" />
          </mxGeometry>
        </mxCell>
        <mxCell id="OnEs7zNqJqw-kV35xcPl-37" value="" style="endArrow=classic;html=1;rounded=0;entryX=0.005;entryY=0.63;entryDx=0;entryDy=0;entryPerimeter=0;exitX=0.995;exitY=0.63;exitDx=0;exitDy=0;exitPerimeter=0;" parent="1" source="OnEs7zNqJqw-kV35xcPl-24" target="OnEs7zNqJqw-kV35xcPl-28" edge="1">
          <mxGeometry width="50" height="50" relative="1" as="geometry">
            <mxPoint x="527" y="308" as="sourcePoint" />
            <mxPoint x="587" y="308" as="targetPoint" />
          </mxGeometry>
        </mxCell>
        <mxCell id="OnEs7zNqJqw-kV35xcPl-38" value="" style="endArrow=classic;html=1;rounded=0;entryX=0.005;entryY=0.63;entryDx=0;entryDy=0;entryPerimeter=0;exitX=0.995;exitY=0.63;exitDx=0;exitDy=0;exitPerimeter=0;" parent="1" source="OnEs7zNqJqw-kV35xcPl-24" target="OnEs7zNqJqw-kV35xcPl-27" edge="1">
          <mxGeometry width="50" height="50" relative="1" as="geometry">
            <mxPoint x="637" y="308" as="sourcePoint" />
            <mxPoint x="667" y="338" as="targetPoint" />
          </mxGeometry>
        </mxCell>
        <mxCell id="OnEs7zNqJqw-kV35xcPl-39" value="" style="aspect=fixed;sketch=0;html=1;dashed=0;whitespace=wrap;fillColor=#2875E2;strokeColor=#ffffff;points=[[0.005,0.63,0],[0.1,0.2,0],[0.9,0.2,0],[0.5,0,0],[0.995,0.63,0],[0.72,0.99,0],[0.5,1,0],[0.28,0.99,0]];shape=mxgraph.kubernetes.icon2;kubernetesLabel=1;prIcon=svc" parent="1" vertex="1">
          <mxGeometry x="577" y="358" width="50" height="48" as="geometry" />
        </mxCell>
        <mxCell id="OnEs7zNqJqw-kV35xcPl-40" value="" style="aspect=fixed;sketch=0;html=1;dashed=0;whitespace=wrap;fillColor=#2875E2;strokeColor=#ffffff;points=[[0.005,0.63,0],[0.1,0.2,0],[0.9,0.2,0],[0.5,0,0],[0.995,0.63,0],[0.72,0.99,0],[0.5,1,0],[0.28,0.99,0]];shape=mxgraph.kubernetes.icon2;kubernetesLabel=1;prIcon=pod" parent="1" vertex="1">
          <mxGeometry x="657" y="358" width="50" height="48" as="geometry" />
        </mxCell>
        <mxCell id="OnEs7zNqJqw-kV35xcPl-41" value="" style="endArrow=classic;html=1;rounded=0;entryX=0.005;entryY=0.63;entryDx=0;entryDy=0;entryPerimeter=0;exitX=0.995;exitY=0.63;exitDx=0;exitDy=0;exitPerimeter=0;" parent="1" source="OnEs7zNqJqw-kV35xcPl-39" target="OnEs7zNqJqw-kV35xcPl-40" edge="1">
          <mxGeometry width="50" height="50" relative="1" as="geometry">
            <mxPoint x="637" y="398" as="sourcePoint" />
            <mxPoint x="667" y="428" as="targetPoint" />
          </mxGeometry>
        </mxCell>
        <mxCell id="OnEs7zNqJqw-kV35xcPl-42" value="" style="endArrow=classic;html=1;rounded=0;exitX=0.5;exitY=1;exitDx=0;exitDy=0;exitPerimeter=0;entryX=0.005;entryY=0.63;entryDx=0;entryDy=0;entryPerimeter=0;" parent="1" source="OnEs7zNqJqw-kV35xcPl-26" target="OnEs7zNqJqw-kV35xcPl-39" edge="1">
          <mxGeometry width="50" height="50" relative="1" as="geometry">
            <mxPoint x="490" y="346" as="sourcePoint" />
            <mxPoint x="550" y="346" as="targetPoint" />
            <Array as="points">
              <mxPoint x="492" y="388" />
            </Array>
          </mxGeometry>
        </mxCell>
        <mxCell id="OnEs7zNqJqw-kV35xcPl-44" value="" style="endArrow=none;html=1;rounded=0;" parent="1" edge="1">
          <mxGeometry width="50" height="50" relative="1" as="geometry">
            <mxPoint x="260" y="157" as="sourcePoint" />
            <mxPoint x="437" y="157" as="targetPoint" />
          </mxGeometry>
        </mxCell>
        <mxCell id="OnEs7zNqJqw-kV35xcPl-45" value="&lt;span style=&quot;color: rgb(35, 47, 61); font-family: Helvetica; font-size: 12px; font-style: normal; font-variant-ligatures: normal; font-variant-caps: normal; font-weight: 400; letter-spacing: normal; orphans: 2; text-indent: 0px; text-transform: none; widows: 2; word-spacing: 0px; -webkit-text-stroke-width: 0px; background-color: rgb(251, 251, 251); text-decoration-thickness: initial; text-decoration-style: initial; text-decoration-color: initial; float: none; display: inline !important;&quot;&gt;Internet&lt;/span&gt;" style="text;whiteSpace=wrap;html=1;align=center;" parent="1" vertex="1">
          <mxGeometry x="326" y="133" width="46" height="20" as="geometry" />
        </mxCell>
        <mxCell id="OnEs7zNqJqw-kV35xcPl-46" value="" style="endArrow=classic;html=1;rounded=0;" parent="1" edge="1">
          <mxGeometry relative="1" as="geometry">
            <mxPoint x="285" y="157" as="sourcePoint" />
            <mxPoint x="229" y="290.5" as="targetPoint" />
            <Array as="points">
              <mxPoint x="285" y="291" />
            </Array>
          </mxGeometry>
        </mxCell>
        <mxCell id="OnEs7zNqJqw-kV35xcPl-47" value="apiserver" style="edgeLabel;resizable=0;html=1;align=center;verticalAlign=middle;rotation=-90;" parent="OnEs7zNqJqw-kV35xcPl-46" connectable="0" vertex="1">
          <mxGeometry relative="1" as="geometry">
            <mxPoint x="-2" y="-20" as="offset" />
          </mxGeometry>
        </mxCell>
        <mxCell id="hbSczMto2mFZ_-X4x2tu-1" value="Control Plane" style="fillColor=default;strokeColor=default;dashed=0;verticalAlign=top;fontStyle=0;fontColor=#232F3D;whiteSpace=wrap;html=1;" parent="1" vertex="1">
          <mxGeometry x="74" y="570" width="160" height="130" as="geometry" />
        </mxCell>
        <mxCell id="hbSczMto2mFZ_-X4x2tu-2" value="" style="aspect=fixed;sketch=0;html=1;dashed=0;whitespace=wrap;fillColor=#2875E2;strokeColor=#ffffff;points=[[0.005,0.63,0],[0.1,0.2,0],[0.9,0.2,0],[0.5,0,0],[0.995,0.63,0],[0.72,0.99,0],[0.5,1,0],[0.28,0.99,0]];shape=mxgraph.kubernetes.icon2;prIcon=control_plane" parent="1" vertex="1">
          <mxGeometry x="64" y="545" width="50" height="48" as="geometry" />
        </mxCell>
        <mxCell id="hbSczMto2mFZ_-X4x2tu-3" value="" style="aspect=fixed;sketch=0;html=1;dashed=0;whitespace=wrap;fillColor=#2875E2;strokeColor=#ffffff;points=[[0.005,0.63,0],[0.1,0.2,0],[0.9,0.2,0],[0.5,0,0],[0.995,0.63,0],[0.72,0.99,0],[0.5,1,0],[0.28,0.99,0]];shape=mxgraph.kubernetes.icon2;kubernetesLabel=1;prIcon=api" parent="1" vertex="1">
          <mxGeometry x="129" y="611" width="50" height="48" as="geometry" />
        </mxCell>
        <mxCell id="hbSczMto2mFZ_-X4x2tu-4" value="&lt;span style=&quot;color: rgb(35, 47, 61); font-family: Helvetica; font-size: 12px; font-style: normal; font-variant-ligatures: normal; font-variant-caps: normal; font-weight: 400; letter-spacing: normal; orphans: 2; text-align: center; text-indent: 0px; text-transform: none; widows: 2; word-spacing: 0px; -webkit-text-stroke-width: 0px; background-color: rgb(251, 251, 251); text-decoration-thickness: initial; text-decoration-style: initial; text-decoration-color: initial; float: none; display: inline !important;&quot;&gt;VM&lt;/span&gt;" style="text;whiteSpace=wrap;html=1;" parent="1" vertex="1">
          <mxGeometry x="114" y="545" width="70" height="30" as="geometry" />
        </mxCell>
        <mxCell id="hbSczMto2mFZ_-X4x2tu-5" value="&lt;font color=&quot;#ff0000&quot;&gt;Data Plane&lt;/font&gt;" style="fillColor=default;strokeColor=#FF0000;dashed=0;verticalAlign=top;fontStyle=0;fontColor=#232F3D;whiteSpace=wrap;html=1;" parent="1" vertex="1">
          <mxGeometry x="334" y="530" width="430" height="235" as="geometry" />
        </mxCell>
        <mxCell id="hbSczMto2mFZ_-X4x2tu-6" value="&lt;span style=&quot;color: rgb(35, 47, 61); font-family: Helvetica; font-size: 12px; font-style: normal; font-variant-ligatures: normal; font-variant-caps: normal; font-weight: 400; letter-spacing: normal; orphans: 2; text-align: center; text-indent: 0px; text-transform: none; widows: 2; word-spacing: 0px; -webkit-text-stroke-width: 0px; background-color: rgb(251, 251, 251); text-decoration-thickness: initial; text-decoration-style: initial; text-decoration-color: initial; float: none; display: inline !important;&quot;&gt;VM&lt;/span&gt;" style="text;whiteSpace=wrap;html=1;" parent="1" vertex="1">
          <mxGeometry x="374" y="505" width="70" height="30" as="geometry" />
        </mxCell>
        <mxCell id="hbSczMto2mFZ_-X4x2tu-7" value="" style="aspect=fixed;sketch=0;html=1;dashed=0;whitespace=wrap;fillColor=#2875E2;strokeColor=#ffffff;points=[[0.005,0.63,0],[0.1,0.2,0],[0.9,0.2,0],[0.5,0,0],[0.995,0.63,0],[0.72,0.99,0],[0.5,1,0],[0.28,0.99,0]];shape=mxgraph.kubernetes.icon2;prIcon=node" parent="1" vertex="1">
          <mxGeometry x="324" y="505" width="50" height="48" as="geometry" />
        </mxCell>
        <mxCell id="hbSczMto2mFZ_-X4x2tu-8" value="" style="endArrow=none;html=1;rounded=0;strokeColor=#FF0000;startArrow=classic;startFill=1;endFill=0;" parent="1" edge="1">
          <mxGeometry relative="1" as="geometry">
            <mxPoint x="344" y="644" as="sourcePoint" />
            <mxPoint x="229" y="644" as="targetPoint" />
          </mxGeometry>
        </mxCell>
        <mxCell id="hbSczMto2mFZ_-X4x2tu-9" value="&lt;font color=&quot;#ff0000&quot;&gt;Control&lt;/font&gt;" style="edgeLabel;resizable=0;html=1;align=center;verticalAlign=middle;" parent="hbSczMto2mFZ_-X4x2tu-8" connectable="0" vertex="1">
          <mxGeometry relative="1" as="geometry" />
        </mxCell>
        <mxCell id="hbSczMto2mFZ_-X4x2tu-10" value="ANY:6443" style="edgeLabel;resizable=0;html=1;align=right;verticalAlign=bottom;" parent="hbSczMto2mFZ_-X4x2tu-8" connectable="0" vertex="1">
          <mxGeometry x="1" relative="1" as="geometry" />
        </mxCell>
        <mxCell id="hbSczMto2mFZ_-X4x2tu-11" value="&lt;font color=&quot;#ff0000&quot;&gt;namespace&lt;/font&gt;" style="fillColor=default;strokeColor=#FF0000;dashed=1;verticalAlign=top;fontStyle=0;fontColor=#232F3D;whiteSpace=wrap;html=1;" parent="1" vertex="1">
          <mxGeometry x="344" y="555" width="410" height="200" as="geometry" />
        </mxCell>
        <mxCell id="hbSczMto2mFZ_-X4x2tu-12" value="" style="aspect=fixed;sketch=0;html=1;dashed=0;whitespace=wrap;fillColor=#2875E2;strokeColor=#ffffff;points=[[0.005,0.63,0],[0.1,0.2,0],[0.9,0.2,0],[0.5,0,0],[0.995,0.63,0],[0.72,0.99,0],[0.5,1,0],[0.28,0.99,0]];shape=mxgraph.kubernetes.icon2;kubernetesLabel=1;prIcon=svc" parent="1" vertex="1">
          <mxGeometry x="391" y="605" width="50" height="48" as="geometry" />
        </mxCell>
        <mxCell id="hbSczMto2mFZ_-X4x2tu-13" value="" style="aspect=fixed;sketch=0;html=1;dashed=0;whitespace=wrap;fillColor=#2875E2;strokeColor=#ffffff;points=[[0.005,0.63,0],[0.1,0.2,0],[0.9,0.2,0],[0.5,0,0],[0.995,0.63,0],[0.72,0.99,0],[0.5,1,0],[0.28,0.99,0]];shape=mxgraph.kubernetes.icon2;kubernetesLabel=1;prIcon=svc" parent="1" vertex="1">
          <mxGeometry x="577" y="605" width="50" height="48" as="geometry" />
        </mxCell>
        <mxCell id="hbSczMto2mFZ_-X4x2tu-14" value="" style="aspect=fixed;sketch=0;html=1;dashed=0;whitespace=wrap;fillColor=#2875E2;strokeColor=#ffffff;points=[[0.005,0.63,0],[0.1,0.2,0],[0.9,0.2,0],[0.5,0,0],[0.995,0.63,0],[0.72,0.99,0],[0.5,1,0],[0.28,0.99,0]];shape=mxgraph.kubernetes.icon2;kubernetesLabel=1;prIcon=pod" parent="1" vertex="1">
          <mxGeometry x="467" y="605" width="50" height="48" as="geometry" />
        </mxCell>
        <mxCell id="hbSczMto2mFZ_-X4x2tu-15" value="" style="aspect=fixed;sketch=0;html=1;dashed=0;whitespace=wrap;fillColor=#2875E2;strokeColor=#ffffff;points=[[0.005,0.63,0],[0.1,0.2,0],[0.9,0.2,0],[0.5,0,0],[0.995,0.63,0],[0.72,0.99,0],[0.5,1,0],[0.28,0.99,0]];shape=mxgraph.kubernetes.icon2;kubernetesLabel=1;prIcon=pod" parent="1" vertex="1">
          <mxGeometry x="657" y="575" width="50" height="48" as="geometry" />
        </mxCell>
        <mxCell id="hbSczMto2mFZ_-X4x2tu-16" value="" style="aspect=fixed;sketch=0;html=1;dashed=0;whitespace=wrap;fillColor=#2875E2;strokeColor=#ffffff;points=[[0.005,0.63,0],[0.1,0.2,0],[0.9,0.2,0],[0.5,0,0],[0.995,0.63,0],[0.72,0.99,0],[0.5,1,0],[0.28,0.99,0]];shape=mxgraph.kubernetes.icon2;kubernetesLabel=1;prIcon=pod" parent="1" vertex="1">
          <mxGeometry x="657" y="635" width="50" height="48" as="geometry" />
        </mxCell>
        <mxCell id="hbSczMto2mFZ_-X4x2tu-17" value="" style="endArrow=classic;html=1;rounded=0;entryX=0.5;entryY=0;entryDx=0;entryDy=0;entryPerimeter=0;" parent="1" target="hbSczMto2mFZ_-X4x2tu-12" edge="1">
          <mxGeometry width="50" height="50" relative="1" as="geometry">
            <mxPoint x="416" y="494" as="sourcePoint" />
            <mxPoint x="484" y="395" as="targetPoint" />
          </mxGeometry>
        </mxCell>
        <mxCell id="hbSczMto2mFZ_-X4x2tu-18" value="" style="endArrow=classic;html=1;rounded=0;entryX=0.005;entryY=0.63;entryDx=0;entryDy=0;entryPerimeter=0;exitX=0.995;exitY=0.63;exitDx=0;exitDy=0;exitPerimeter=0;" parent="1" source="hbSczMto2mFZ_-X4x2tu-12" target="hbSczMto2mFZ_-X4x2tu-14" edge="1">
          <mxGeometry width="50" height="50" relative="1" as="geometry">
            <mxPoint x="427" y="479" as="sourcePoint" />
            <mxPoint x="426" y="615" as="targetPoint" />
          </mxGeometry>
        </mxCell>
        <mxCell id="hbSczMto2mFZ_-X4x2tu-19" value="" style="endArrow=classic;html=1;rounded=0;exitX=0.995;exitY=0.63;exitDx=0;exitDy=0;exitPerimeter=0;entryX=0.005;entryY=0.63;entryDx=0;entryDy=0;entryPerimeter=0;" parent="1" source="hbSczMto2mFZ_-X4x2tu-14" target="hbSczMto2mFZ_-X4x2tu-13" edge="1">
          <mxGeometry width="50" height="50" relative="1" as="geometry">
            <mxPoint x="507" y="639" as="sourcePoint" />
            <mxPoint x="477" y="645" as="targetPoint" />
          </mxGeometry>
        </mxCell>
        <mxCell id="hbSczMto2mFZ_-X4x2tu-20" value="" style="endArrow=classic;html=1;rounded=0;entryX=0.005;entryY=0.63;entryDx=0;entryDy=0;entryPerimeter=0;exitX=0.995;exitY=0.63;exitDx=0;exitDy=0;exitPerimeter=0;" parent="1" source="hbSczMto2mFZ_-X4x2tu-13" target="hbSczMto2mFZ_-X4x2tu-16" edge="1">
          <mxGeometry width="50" height="50" relative="1" as="geometry">
            <mxPoint x="527" y="645" as="sourcePoint" />
            <mxPoint x="587" y="645" as="targetPoint" />
          </mxGeometry>
        </mxCell>
        <mxCell id="hbSczMto2mFZ_-X4x2tu-21" value="" style="endArrow=classic;html=1;rounded=0;entryX=0.005;entryY=0.63;entryDx=0;entryDy=0;entryPerimeter=0;exitX=0.995;exitY=0.63;exitDx=0;exitDy=0;exitPerimeter=0;" parent="1" source="hbSczMto2mFZ_-X4x2tu-13" target="hbSczMto2mFZ_-X4x2tu-15" edge="1">
          <mxGeometry width="50" height="50" relative="1" as="geometry">
            <mxPoint x="637" y="645" as="sourcePoint" />
            <mxPoint x="667" y="675" as="targetPoint" />
          </mxGeometry>
        </mxCell>
        <mxCell id="hbSczMto2mFZ_-X4x2tu-22" value="" style="aspect=fixed;sketch=0;html=1;dashed=0;whitespace=wrap;fillColor=#2875E2;strokeColor=#ffffff;points=[[0.005,0.63,0],[0.1,0.2,0],[0.9,0.2,0],[0.5,0,0],[0.995,0.63,0],[0.72,0.99,0],[0.5,1,0],[0.28,0.99,0]];shape=mxgraph.kubernetes.icon2;kubernetesLabel=1;prIcon=svc" parent="1" vertex="1">
          <mxGeometry x="577" y="695" width="50" height="48" as="geometry" />
        </mxCell>
        <mxCell id="hbSczMto2mFZ_-X4x2tu-23" value="" style="aspect=fixed;sketch=0;html=1;dashed=0;whitespace=wrap;fillColor=#2875E2;strokeColor=#ffffff;points=[[0.005,0.63,0],[0.1,0.2,0],[0.9,0.2,0],[0.5,0,0],[0.995,0.63,0],[0.72,0.99,0],[0.5,1,0],[0.28,0.99,0]];shape=mxgraph.kubernetes.icon2;kubernetesLabel=1;prIcon=pod" parent="1" vertex="1">
          <mxGeometry x="657" y="695" width="50" height="48" as="geometry" />
        </mxCell>
        <mxCell id="hbSczMto2mFZ_-X4x2tu-24" value="" style="endArrow=classic;html=1;rounded=0;entryX=0.005;entryY=0.63;entryDx=0;entryDy=0;entryPerimeter=0;exitX=0.995;exitY=0.63;exitDx=0;exitDy=0;exitPerimeter=0;" parent="1" source="hbSczMto2mFZ_-X4x2tu-22" target="hbSczMto2mFZ_-X4x2tu-23" edge="1">
          <mxGeometry width="50" height="50" relative="1" as="geometry">
            <mxPoint x="637" y="735" as="sourcePoint" />
            <mxPoint x="667" y="765" as="targetPoint" />
          </mxGeometry>
        </mxCell>
        <mxCell id="hbSczMto2mFZ_-X4x2tu-25" value="" style="endArrow=classic;html=1;rounded=0;exitX=0.5;exitY=1;exitDx=0;exitDy=0;exitPerimeter=0;entryX=0.005;entryY=0.63;entryDx=0;entryDy=0;entryPerimeter=0;" parent="1" source="hbSczMto2mFZ_-X4x2tu-14" target="hbSczMto2mFZ_-X4x2tu-22" edge="1">
          <mxGeometry width="50" height="50" relative="1" as="geometry">
            <mxPoint x="490" y="683" as="sourcePoint" />
            <mxPoint x="550" y="683" as="targetPoint" />
            <Array as="points">
              <mxPoint x="492" y="725" />
            </Array>
          </mxGeometry>
        </mxCell>
        <mxCell id="hbSczMto2mFZ_-X4x2tu-26" value="" style="endArrow=none;html=1;rounded=0;strokeColor=#FF0000;" parent="1" edge="1">
          <mxGeometry width="50" height="50" relative="1" as="geometry">
            <mxPoint x="260" y="494" as="sourcePoint" />
            <mxPoint x="437" y="494" as="targetPoint" />
          </mxGeometry>
        </mxCell>
        <mxCell id="hbSczMto2mFZ_-X4x2tu-27" value="&lt;span style=&quot;font-family: Helvetica; font-size: 12px; font-style: normal; font-variant-ligatures: normal; font-variant-caps: normal; font-weight: 400; letter-spacing: normal; orphans: 2; text-indent: 0px; text-transform: none; widows: 2; word-spacing: 0px; -webkit-text-stroke-width: 0px; background-color: rgb(251, 251, 251); text-decoration-thickness: initial; text-decoration-style: initial; text-decoration-color: initial; float: none; display: inline !important;&quot;&gt;&lt;font color=&quot;#ff0000&quot;&gt;Internet&lt;/font&gt;&lt;/span&gt;" style="text;whiteSpace=wrap;html=1;align=center;" parent="1" vertex="1">
          <mxGeometry x="326" y="470" width="46" height="20" as="geometry" />
        </mxCell>
        <mxCell id="hbSczMto2mFZ_-X4x2tu-28" value="" style="endArrow=classic;html=1;rounded=0;strokeColor=#FF0000;" parent="1" edge="1">
          <mxGeometry relative="1" as="geometry">
            <mxPoint x="285" y="494" as="sourcePoint" />
            <mxPoint x="229" y="627.5" as="targetPoint" />
            <Array as="points">
              <mxPoint x="285" y="628" />
            </Array>
          </mxGeometry>
        </mxCell>
        <mxCell id="hbSczMto2mFZ_-X4x2tu-29" value="&lt;font color=&quot;#ff0000&quot;&gt;apiserver&lt;/font&gt;" style="edgeLabel;resizable=0;html=1;align=center;verticalAlign=middle;rotation=-90;" parent="hbSczMto2mFZ_-X4x2tu-28" connectable="0" vertex="1">
          <mxGeometry relative="1" as="geometry">
            <mxPoint x="-2" y="-20" as="offset" />
          </mxGeometry>
        </mxCell>
        <mxCell id="hbSczMto2mFZ_-X4x2tu-31" value="&lt;font color=&quot;#000000&quot;&gt;Control Plane&lt;/font&gt;" style="fillColor=default;strokeColor=#000000;dashed=0;verticalAlign=top;fontStyle=0;fontColor=#232F3D;whiteSpace=wrap;html=1;" parent="1" vertex="1">
          <mxGeometry x="74" y="923" width="160" height="130" as="geometry" />
        </mxCell>
        <mxCell id="hbSczMto2mFZ_-X4x2tu-32" value="" style="aspect=fixed;sketch=0;html=1;dashed=0;whitespace=wrap;fillColor=#2875E2;strokeColor=#ffffff;points=[[0.005,0.63,0],[0.1,0.2,0],[0.9,0.2,0],[0.5,0,0],[0.995,0.63,0],[0.72,0.99,0],[0.5,1,0],[0.28,0.99,0]];shape=mxgraph.kubernetes.icon2;prIcon=control_plane" parent="1" vertex="1">
          <mxGeometry x="64" y="898" width="50" height="48" as="geometry" />
        </mxCell>
        <mxCell id="hbSczMto2mFZ_-X4x2tu-33" value="" style="aspect=fixed;sketch=0;html=1;dashed=0;whitespace=wrap;fillColor=#2875E2;strokeColor=#ffffff;points=[[0.005,0.63,0],[0.1,0.2,0],[0.9,0.2,0],[0.5,0,0],[0.995,0.63,0],[0.72,0.99,0],[0.5,1,0],[0.28,0.99,0]];shape=mxgraph.kubernetes.icon2;kubernetesLabel=1;prIcon=api" parent="1" vertex="1">
          <mxGeometry x="129" y="964" width="50" height="48" as="geometry" />
        </mxCell>
        <mxCell id="hbSczMto2mFZ_-X4x2tu-34" value="&lt;span style=&quot;color: rgb(35, 47, 61); font-family: Helvetica; font-size: 12px; font-style: normal; font-variant-ligatures: normal; font-variant-caps: normal; font-weight: 400; letter-spacing: normal; orphans: 2; text-align: center; text-indent: 0px; text-transform: none; widows: 2; word-spacing: 0px; -webkit-text-stroke-width: 0px; background-color: rgb(251, 251, 251); text-decoration-thickness: initial; text-decoration-style: initial; text-decoration-color: initial; float: none; display: inline !important;&quot;&gt;VM&lt;/span&gt;" style="text;whiteSpace=wrap;html=1;" parent="1" vertex="1">
          <mxGeometry x="114" y="898" width="70" height="30" as="geometry" />
        </mxCell>
        <mxCell id="hbSczMto2mFZ_-X4x2tu-35" value="&lt;font color=&quot;#ff0000&quot;&gt;Data Plane&lt;/font&gt;" style="fillColor=default;strokeColor=#FF0000;dashed=0;verticalAlign=top;fontStyle=0;fontColor=#232F3D;whiteSpace=wrap;html=1;" parent="1" vertex="1">
          <mxGeometry x="334" y="883" width="430" height="235" as="geometry" />
        </mxCell>
        <mxCell id="hbSczMto2mFZ_-X4x2tu-36" value="&lt;span style=&quot;color: rgb(35, 47, 61); font-family: Helvetica; font-size: 12px; font-style: normal; font-variant-ligatures: normal; font-variant-caps: normal; font-weight: 400; letter-spacing: normal; orphans: 2; text-align: center; text-indent: 0px; text-transform: none; widows: 2; word-spacing: 0px; -webkit-text-stroke-width: 0px; background-color: rgb(251, 251, 251); text-decoration-thickness: initial; text-decoration-style: initial; text-decoration-color: initial; float: none; display: inline !important;&quot;&gt;VM&lt;/span&gt;" style="text;whiteSpace=wrap;html=1;" parent="1" vertex="1">
          <mxGeometry x="374" y="858" width="70" height="30" as="geometry" />
        </mxCell>
        <mxCell id="hbSczMto2mFZ_-X4x2tu-37" value="" style="aspect=fixed;sketch=0;html=1;dashed=0;whitespace=wrap;fillColor=#2875E2;strokeColor=#ffffff;points=[[0.005,0.63,0],[0.1,0.2,0],[0.9,0.2,0],[0.5,0,0],[0.995,0.63,0],[0.72,0.99,0],[0.5,1,0],[0.28,0.99,0]];shape=mxgraph.kubernetes.icon2;prIcon=node" parent="1" vertex="1">
          <mxGeometry x="324" y="858" width="50" height="48" as="geometry" />
        </mxCell>
        <mxCell id="hbSczMto2mFZ_-X4x2tu-41" value="&lt;font color=&quot;#ff0000&quot;&gt;namespace&lt;/font&gt;" style="fillColor=default;strokeColor=#FF0000;dashed=1;verticalAlign=top;fontStyle=0;fontColor=#232F3D;whiteSpace=wrap;html=1;" parent="1" vertex="1">
          <mxGeometry x="344" y="908" width="410" height="200" as="geometry" />
        </mxCell>
        <mxCell id="hbSczMto2mFZ_-X4x2tu-42" value="" style="aspect=fixed;sketch=0;html=1;dashed=0;whitespace=wrap;fillColor=#2875E2;strokeColor=#ffffff;points=[[0.005,0.63,0],[0.1,0.2,0],[0.9,0.2,0],[0.5,0,0],[0.995,0.63,0],[0.72,0.99,0],[0.5,1,0],[0.28,0.99,0]];shape=mxgraph.kubernetes.icon2;kubernetesLabel=1;prIcon=svc" parent="1" vertex="1">
          <mxGeometry x="391" y="958" width="50" height="48" as="geometry" />
        </mxCell>
        <mxCell id="hbSczMto2mFZ_-X4x2tu-43" value="" style="aspect=fixed;sketch=0;html=1;dashed=0;whitespace=wrap;fillColor=#2875E2;strokeColor=#ffffff;points=[[0.005,0.63,0],[0.1,0.2,0],[0.9,0.2,0],[0.5,0,0],[0.995,0.63,0],[0.72,0.99,0],[0.5,1,0],[0.28,0.99,0]];shape=mxgraph.kubernetes.icon2;kubernetesLabel=1;prIcon=svc" parent="1" vertex="1">
          <mxGeometry x="577" y="958" width="50" height="48" as="geometry" />
        </mxCell>
        <mxCell id="hbSczMto2mFZ_-X4x2tu-44" value="" style="aspect=fixed;sketch=0;html=1;dashed=0;whitespace=wrap;fillColor=#2875E2;strokeColor=#ffffff;points=[[0.005,0.63,0],[0.1,0.2,0],[0.9,0.2,0],[0.5,0,0],[0.995,0.63,0],[0.72,0.99,0],[0.5,1,0],[0.28,0.99,0]];shape=mxgraph.kubernetes.icon2;kubernetesLabel=1;prIcon=pod" parent="1" vertex="1">
          <mxGeometry x="467" y="958" width="50" height="48" as="geometry" />
        </mxCell>
        <mxCell id="hbSczMto2mFZ_-X4x2tu-45" value="" style="aspect=fixed;sketch=0;html=1;dashed=0;whitespace=wrap;fillColor=#2875E2;strokeColor=#ffffff;points=[[0.005,0.63,0],[0.1,0.2,0],[0.9,0.2,0],[0.5,0,0],[0.995,0.63,0],[0.72,0.99,0],[0.5,1,0],[0.28,0.99,0]];shape=mxgraph.kubernetes.icon2;kubernetesLabel=1;prIcon=pod" parent="1" vertex="1">
          <mxGeometry x="657" y="928" width="50" height="48" as="geometry" />
        </mxCell>
        <mxCell id="hbSczMto2mFZ_-X4x2tu-46" value="" style="aspect=fixed;sketch=0;html=1;dashed=0;whitespace=wrap;fillColor=#2875E2;strokeColor=#ffffff;points=[[0.005,0.63,0],[0.1,0.2,0],[0.9,0.2,0],[0.5,0,0],[0.995,0.63,0],[0.72,0.99,0],[0.5,1,0],[0.28,0.99,0]];shape=mxgraph.kubernetes.icon2;kubernetesLabel=1;prIcon=pod" parent="1" vertex="1">
          <mxGeometry x="657" y="988" width="50" height="48" as="geometry" />
        </mxCell>
        <mxCell id="hbSczMto2mFZ_-X4x2tu-47" value="" style="endArrow=classic;html=1;rounded=0;entryX=0.5;entryY=0;entryDx=0;entryDy=0;entryPerimeter=0;strokeColor=#FF0000;" parent="1" target="hbSczMto2mFZ_-X4x2tu-42" edge="1">
          <mxGeometry width="50" height="50" relative="1" as="geometry">
            <mxPoint x="416" y="847" as="sourcePoint" />
            <mxPoint x="484" y="748" as="targetPoint" />
          </mxGeometry>
        </mxCell>
        <mxCell id="hbSczMto2mFZ_-X4x2tu-62" value="&lt;font color=&quot;#ff0000&quot;&gt;Command Injection&lt;/font&gt;" style="edgeLabel;html=1;align=center;verticalAlign=middle;resizable=0;points=[];rotation=0;" parent="hbSczMto2mFZ_-X4x2tu-47" vertex="1" connectable="0">
          <mxGeometry x="0.4084" y="1" relative="1" as="geometry">
            <mxPoint x="9" y="-29" as="offset" />
          </mxGeometry>
        </mxCell>
        <mxCell id="hbSczMto2mFZ_-X4x2tu-48" value="" style="endArrow=classic;html=1;rounded=0;entryX=0.005;entryY=0.63;entryDx=0;entryDy=0;entryPerimeter=0;exitX=0.995;exitY=0.63;exitDx=0;exitDy=0;exitPerimeter=0;strokeColor=#FF0000;" parent="1" source="hbSczMto2mFZ_-X4x2tu-42" target="hbSczMto2mFZ_-X4x2tu-44" edge="1">
          <mxGeometry width="50" height="50" relative="1" as="geometry">
            <mxPoint x="427" y="832" as="sourcePoint" />
            <mxPoint x="426" y="968" as="targetPoint" />
          </mxGeometry>
        </mxCell>
        <mxCell id="hbSczMto2mFZ_-X4x2tu-49" value="" style="endArrow=classic;html=1;rounded=0;exitX=0.995;exitY=0.63;exitDx=0;exitDy=0;exitPerimeter=0;entryX=0.005;entryY=0.63;entryDx=0;entryDy=0;entryPerimeter=0;" parent="1" source="hbSczMto2mFZ_-X4x2tu-44" target="hbSczMto2mFZ_-X4x2tu-43" edge="1">
          <mxGeometry width="50" height="50" relative="1" as="geometry">
            <mxPoint x="507" y="992" as="sourcePoint" />
            <mxPoint x="477" y="998" as="targetPoint" />
          </mxGeometry>
        </mxCell>
        <mxCell id="hbSczMto2mFZ_-X4x2tu-50" value="" style="endArrow=classic;html=1;rounded=0;entryX=0.005;entryY=0.63;entryDx=0;entryDy=0;entryPerimeter=0;exitX=0.995;exitY=0.63;exitDx=0;exitDy=0;exitPerimeter=0;" parent="1" source="hbSczMto2mFZ_-X4x2tu-43" target="hbSczMto2mFZ_-X4x2tu-46" edge="1">
          <mxGeometry width="50" height="50" relative="1" as="geometry">
            <mxPoint x="527" y="998" as="sourcePoint" />
            <mxPoint x="587" y="998" as="targetPoint" />
          </mxGeometry>
        </mxCell>
        <mxCell id="hbSczMto2mFZ_-X4x2tu-51" value="" style="endArrow=classic;html=1;rounded=0;entryX=0.005;entryY=0.63;entryDx=0;entryDy=0;entryPerimeter=0;exitX=0.995;exitY=0.63;exitDx=0;exitDy=0;exitPerimeter=0;" parent="1" source="hbSczMto2mFZ_-X4x2tu-43" target="hbSczMto2mFZ_-X4x2tu-45" edge="1">
          <mxGeometry width="50" height="50" relative="1" as="geometry">
            <mxPoint x="637" y="998" as="sourcePoint" />
            <mxPoint x="667" y="1028" as="targetPoint" />
          </mxGeometry>
        </mxCell>
        <mxCell id="hbSczMto2mFZ_-X4x2tu-52" value="" style="aspect=fixed;sketch=0;html=1;dashed=0;whitespace=wrap;fillColor=#2875E2;strokeColor=#ffffff;points=[[0.005,0.63,0],[0.1,0.2,0],[0.9,0.2,0],[0.5,0,0],[0.995,0.63,0],[0.72,0.99,0],[0.5,1,0],[0.28,0.99,0]];shape=mxgraph.kubernetes.icon2;kubernetesLabel=1;prIcon=svc" parent="1" vertex="1">
          <mxGeometry x="577" y="1048" width="50" height="48" as="geometry" />
        </mxCell>
        <mxCell id="hbSczMto2mFZ_-X4x2tu-53" value="" style="aspect=fixed;sketch=0;html=1;dashed=0;whitespace=wrap;fillColor=#2875E2;strokeColor=#ffffff;points=[[0.005,0.63,0],[0.1,0.2,0],[0.9,0.2,0],[0.5,0,0],[0.995,0.63,0],[0.72,0.99,0],[0.5,1,0],[0.28,0.99,0]];shape=mxgraph.kubernetes.icon2;kubernetesLabel=1;prIcon=pod" parent="1" vertex="1">
          <mxGeometry x="657" y="1048" width="50" height="48" as="geometry" />
        </mxCell>
        <mxCell id="hbSczMto2mFZ_-X4x2tu-54" value="" style="endArrow=classic;html=1;rounded=0;entryX=0.005;entryY=0.63;entryDx=0;entryDy=0;entryPerimeter=0;exitX=0.995;exitY=0.63;exitDx=0;exitDy=0;exitPerimeter=0;" parent="1" source="hbSczMto2mFZ_-X4x2tu-52" target="hbSczMto2mFZ_-X4x2tu-53" edge="1">
          <mxGeometry width="50" height="50" relative="1" as="geometry">
            <mxPoint x="637" y="1088" as="sourcePoint" />
            <mxPoint x="667" y="1118" as="targetPoint" />
          </mxGeometry>
        </mxCell>
        <mxCell id="hbSczMto2mFZ_-X4x2tu-55" value="" style="endArrow=classic;html=1;rounded=0;exitX=0.5;exitY=1;exitDx=0;exitDy=0;exitPerimeter=0;entryX=0.005;entryY=0.63;entryDx=0;entryDy=0;entryPerimeter=0;" parent="1" source="hbSczMto2mFZ_-X4x2tu-44" target="hbSczMto2mFZ_-X4x2tu-52" edge="1">
          <mxGeometry width="50" height="50" relative="1" as="geometry">
            <mxPoint x="490" y="1036" as="sourcePoint" />
            <mxPoint x="550" y="1036" as="targetPoint" />
            <Array as="points">
              <mxPoint x="492" y="1078" />
            </Array>
          </mxGeometry>
        </mxCell>
        <mxCell id="hbSczMto2mFZ_-X4x2tu-56" value="" style="endArrow=none;html=1;rounded=0;strokeColor=#FF0000;" parent="1" edge="1">
          <mxGeometry width="50" height="50" relative="1" as="geometry">
            <mxPoint x="260" y="847" as="sourcePoint" />
            <mxPoint x="437" y="847" as="targetPoint" />
          </mxGeometry>
        </mxCell>
        <mxCell id="hbSczMto2mFZ_-X4x2tu-57" value="&lt;span style=&quot;font-family: Helvetica; font-size: 12px; font-style: normal; font-variant-ligatures: normal; font-variant-caps: normal; font-weight: 400; letter-spacing: normal; orphans: 2; text-indent: 0px; text-transform: none; widows: 2; word-spacing: 0px; -webkit-text-stroke-width: 0px; background-color: rgb(251, 251, 251); text-decoration-thickness: initial; text-decoration-style: initial; text-decoration-color: initial; float: none; display: inline !important;&quot;&gt;&lt;font color=&quot;#ff0000&quot;&gt;Internet&lt;/font&gt;&lt;/span&gt;" style="text;whiteSpace=wrap;html=1;align=center;" parent="1" vertex="1">
          <mxGeometry x="326" y="823" width="46" height="20" as="geometry" />
        </mxCell>
        <mxCell id="hbSczMto2mFZ_-X4x2tu-38" value="" style="endArrow=classic;html=1;rounded=0;strokeColor=#FF0000;" parent="1" edge="1">
          <mxGeometry relative="1" as="geometry">
            <mxPoint x="477" y="999" as="sourcePoint" />
            <mxPoint x="229" y="997" as="targetPoint" />
            <Array as="points">
              <mxPoint x="460" y="1015" />
              <mxPoint x="380" y="1015" />
              <mxPoint x="360" y="998" />
            </Array>
          </mxGeometry>
        </mxCell>
        <mxCell id="hbSczMto2mFZ_-X4x2tu-39" value="&lt;font color=&quot;#ff0000&quot;&gt;apiserver&lt;/font&gt;" style="edgeLabel;resizable=0;html=1;align=center;verticalAlign=middle;" parent="hbSczMto2mFZ_-X4x2tu-38" connectable="0" vertex="1">
          <mxGeometry relative="1" as="geometry">
            <mxPoint x="-63" y="-1" as="offset" />
          </mxGeometry>
        </mxCell>
        <mxCell id="hbSczMto2mFZ_-X4x2tu-40" value="ANY:6443" style="edgeLabel;resizable=0;html=1;align=right;verticalAlign=bottom;" parent="hbSczMto2mFZ_-X4x2tu-38" connectable="0" vertex="1">
          <mxGeometry x="1" relative="1" as="geometry" />
        </mxCell>
        <mxCell id="hbSczMto2mFZ_-X4x2tu-65" value="Data Plane" style="fillColor=default;strokeColor=default;dashed=0;verticalAlign=top;fontStyle=0;fontColor=#232F3D;whiteSpace=wrap;html=1;" parent="1" vertex="1">
          <mxGeometry x="159" y="1317" width="492.5" height="320" as="geometry" />
        </mxCell>
        <mxCell id="hbSczMto2mFZ_-X4x2tu-66" value="" style="aspect=fixed;sketch=0;html=1;dashed=0;whitespace=wrap;fillColor=#2875E2;strokeColor=#ffffff;points=[[0.005,0.63,0],[0.1,0.2,0],[0.9,0.2,0],[0.5,0,0],[0.995,0.63,0],[0.72,0.99,0],[0.5,1,0],[0.28,0.99,0]];shape=mxgraph.kubernetes.icon2;prIcon=node" parent="1" vertex="1">
          <mxGeometry x="149" y="1295" width="50" height="48" as="geometry" />
        </mxCell>
        <mxCell id="hbSczMto2mFZ_-X4x2tu-64" value="Pod" style="fillColor=default;strokeColor=default;dashed=0;verticalAlign=top;fontStyle=0;fontColor=#232F3D;whiteSpace=wrap;html=1;" parent="1" vertex="1">
          <mxGeometry x="310.5" y="1370" width="330" height="255" as="geometry" />
        </mxCell>
        <mxCell id="hbSczMto2mFZ_-X4x2tu-63" value="" style="aspect=fixed;sketch=0;html=1;dashed=0;whitespace=wrap;fillColor=#2875E2;strokeColor=#ffffff;points=[[0.005,0.63,0],[0.1,0.2,0],[0.9,0.2,0],[0.5,0,0],[0.995,0.63,0],[0.72,0.99,0],[0.5,1,0],[0.28,0.99,0]];shape=mxgraph.kubernetes.icon2;kubernetesLabel=1;prIcon=pod" parent="1" vertex="1">
          <mxGeometry x="299.5" y="1347" width="50" height="48" as="geometry" />
        </mxCell>
        <mxCell id="hbSczMto2mFZ_-X4x2tu-68" value="" style="aspect=fixed;sketch=0;html=1;dashed=0;whitespace=wrap;fillColor=#2875E2;strokeColor=#ffffff;points=[[0.005,0.63,0],[0.1,0.2,0],[0.9,0.2,0],[0.5,0,0],[0.995,0.63,0],[0.72,0.99,0],[0.5,1,0],[0.28,0.99,0]];shape=mxgraph.kubernetes.icon2;kubernetesLabel=1;prIcon=svc" parent="1" vertex="1">
          <mxGeometry x="240" y="1429" width="50" height="48" as="geometry" />
        </mxCell>
        <mxCell id="hbSczMto2mFZ_-X4x2tu-69" value="" style="endArrow=classic;html=1;rounded=0;entryX=0.5;entryY=0;entryDx=0;entryDy=0;entryPerimeter=0;strokeColor=#FF0000;" parent="1" target="hbSczMto2mFZ_-X4x2tu-68" edge="1">
          <mxGeometry width="50" height="50" relative="1" as="geometry">
            <mxPoint x="265" y="1262" as="sourcePoint" />
            <mxPoint x="264" y="1400" as="targetPoint" />
          </mxGeometry>
        </mxCell>
        <mxCell id="hbSczMto2mFZ_-X4x2tu-70" value="&lt;font color=&quot;#ff0000&quot;&gt;Command Injection&lt;/font&gt;" style="edgeLabel;html=1;align=center;verticalAlign=middle;resizable=0;points=[];rotation=0;" parent="hbSczMto2mFZ_-X4x2tu-69" vertex="1" connectable="0">
          <mxGeometry x="0.4084" y="1" relative="1" as="geometry">
            <mxPoint x="-1" y="-49" as="offset" />
          </mxGeometry>
        </mxCell>
        <mxCell id="hbSczMto2mFZ_-X4x2tu-71" value="" style="endArrow=none;html=1;rounded=0;strokeColor=#FF0000;" parent="1" edge="1">
          <mxGeometry width="50" height="50" relative="1" as="geometry">
            <mxPoint x="176" y="1262" as="sourcePoint" />
            <mxPoint x="353" y="1262" as="targetPoint" />
          </mxGeometry>
        </mxCell>
        <mxCell id="hbSczMto2mFZ_-X4x2tu-72" value="&lt;span style=&quot;font-family: Helvetica; font-size: 12px; font-style: normal; font-variant-ligatures: normal; font-variant-caps: normal; font-weight: 400; letter-spacing: normal; orphans: 2; text-indent: 0px; text-transform: none; widows: 2; word-spacing: 0px; -webkit-text-stroke-width: 0px; background-color: rgb(251, 251, 251); text-decoration-thickness: initial; text-decoration-style: initial; text-decoration-color: initial; float: none; display: inline !important;&quot;&gt;&lt;font color=&quot;#ff0000&quot;&gt;Internet&lt;/font&gt;&lt;/span&gt;" style="text;whiteSpace=wrap;html=1;align=center;" parent="1" vertex="1">
          <mxGeometry x="242" y="1238" width="46" height="20" as="geometry" />
        </mxCell>
        <mxCell id="hbSczMto2mFZ_-X4x2tu-73" value="Container" style="fillColor=default;strokeColor=default;dashed=0;verticalAlign=top;fontStyle=0;fontColor=#232F3D;whiteSpace=wrap;html=1;" parent="1" vertex="1">
          <mxGeometry x="356.5" y="1395" width="239" height="217" as="geometry" />
        </mxCell>
        <mxCell id="hbSczMto2mFZ_-X4x2tu-74" value="" style="shape=image;html=1;verticalAlign=top;verticalLabelPosition=bottom;labelBackgroundColor=#ffffff;imageAspect=0;aspect=fixed;image=https://cdn0.iconfinder.com/data/icons/social-media-2104/24/social_media_social_media_logo_docker-128.png" parent="1" vertex="1">
          <mxGeometry x="245" y="1550" width="40" height="40" as="geometry" />
        </mxCell>
        <mxCell id="hbSczMto2mFZ_-X4x2tu-76" value="&lt;span style=&quot;font-family: Helvetica; font-size: 12px; font-style: normal; font-variant-ligatures: normal; font-variant-caps: normal; font-weight: 400; letter-spacing: normal; orphans: 2; text-indent: 0px; text-transform: none; widows: 2; word-spacing: 0px; -webkit-text-stroke-width: 0px; background-color: rgb(251, 251, 251); text-decoration-thickness: initial; text-decoration-style: initial; text-decoration-color: initial; float: none; display: inline !important;&quot;&gt;docker.sock&lt;/span&gt;" style="text;whiteSpace=wrap;html=1;align=center;" parent="1" vertex="1">
          <mxGeometry x="242" y="1580" width="46" height="20" as="geometry" />
        </mxCell>
        <mxCell id="hbSczMto2mFZ_-X4x2tu-78" value="Volume Mount" style="fillColor=default;strokeColor=default;dashed=0;verticalAlign=top;fontStyle=0;fontColor=#232F3D;whiteSpace=wrap;html=1;" parent="1" vertex="1">
          <mxGeometry x="374" y="1518" width="205" height="80" as="geometry" />
        </mxCell>
        <mxCell id="hbSczMto2mFZ_-X4x2tu-77" value="" style="aspect=fixed;sketch=0;html=1;dashed=0;whitespace=wrap;fillColor=#2875E2;strokeColor=#ffffff;points=[[0.005,0.63,0],[0.1,0.2,0],[0.9,0.2,0],[0.5,0,0],[0.995,0.63,0],[0.72,0.99,0],[0.5,1,0],[0.28,0.99,0]];shape=mxgraph.kubernetes.icon2;kubernetesLabel=1;prIcon=vol" parent="1" vertex="1">
          <mxGeometry x="364" y="1497" width="50" height="48" as="geometry" />
        </mxCell>
        <mxCell id="hbSczMto2mFZ_-X4x2tu-79" value="" style="shape=image;html=1;verticalAlign=top;verticalLabelPosition=bottom;labelBackgroundColor=#ffffff;imageAspect=0;aspect=fixed;image=https://cdn0.iconfinder.com/data/icons/social-media-2104/24/social_media_social_media_logo_docker-128.png" parent="1" vertex="1">
          <mxGeometry x="456.5" y="1545" width="40" height="40" as="geometry" />
        </mxCell>
        <mxCell id="hbSczMto2mFZ_-X4x2tu-80" value="&lt;span style=&quot;font-family: Helvetica; font-size: 12px; font-style: normal; font-variant-ligatures: normal; font-variant-caps: normal; font-weight: 400; letter-spacing: normal; orphans: 2; text-indent: 0px; text-transform: none; widows: 2; word-spacing: 0px; -webkit-text-stroke-width: 0px; background-color: rgb(251, 251, 251); text-decoration-thickness: initial; text-decoration-style: initial; text-decoration-color: initial; float: none; display: inline !important;&quot;&gt;docker.sock&lt;/span&gt;" style="text;whiteSpace=wrap;html=1;align=center;" parent="1" vertex="1">
          <mxGeometry x="453.5" y="1575" width="46" height="20" as="geometry" />
        </mxCell>
        <mxCell id="hbSczMto2mFZ_-X4x2tu-81" value="" style="image;sketch=0;aspect=fixed;html=1;points=[];align=center;fontSize=12;image=img/lib/mscae/Docker.svg;" parent="1" vertex="1">
          <mxGeometry x="174" y="1504" width="50" height="41" as="geometry" />
        </mxCell>
        <mxCell id="hbSczMto2mFZ_-X4x2tu-82" value="" style="sketch=0;outlineConnect=0;fontColor=#232F3E;gradientColor=none;strokeColor=#232F3E;fillColor=#ffffff;dashed=0;verticalLabelPosition=bottom;verticalAlign=top;align=center;html=1;fontSize=12;fontStyle=0;aspect=fixed;shape=mxgraph.aws4.resourceIcon;resIcon=mxgraph.aws4.container_1;" parent="1" vertex="1">
          <mxGeometry x="446.5" y="1429" width="60" height="60" as="geometry" />
        </mxCell>
        <mxCell id="hbSczMto2mFZ_-X4x2tu-83" value="" style="endArrow=classic;html=1;rounded=0;strokeColor=#FF0000;" parent="1" target="hbSczMto2mFZ_-X4x2tu-82" edge="1">
          <mxGeometry width="50" height="50" relative="1" as="geometry">
            <mxPoint x="289" y="1459" as="sourcePoint" />
            <mxPoint x="428" y="1280" as="targetPoint" />
          </mxGeometry>
        </mxCell>
        <mxCell id="hbSczMto2mFZ_-X4x2tu-85" value="" style="endArrow=classic;html=1;rounded=0;strokeColor=#FF0000;entryX=1;entryY=0.5;entryDx=0;entryDy=0;" parent="1" source="hbSczMto2mFZ_-X4x2tu-82" target="hbSczMto2mFZ_-X4x2tu-79" edge="1">
          <mxGeometry width="50" height="50" relative="1" as="geometry">
            <mxPoint x="299" y="1469" as="sourcePoint" />
            <mxPoint x="457" y="1469" as="targetPoint" />
            <Array as="points">
              <mxPoint x="546" y="1459" />
              <mxPoint x="546" y="1565" />
            </Array>
          </mxGeometry>
        </mxCell>
        <mxCell id="hbSczMto2mFZ_-X4x2tu-87" value="" style="endArrow=none;html=1;rounded=0;entryX=0.005;entryY=0.614;entryDx=0;entryDy=0;entryPerimeter=0;exitX=1;exitY=0.5;exitDx=0;exitDy=0;dashed=1;endFill=0;" parent="1" source="hbSczMto2mFZ_-X4x2tu-74" target="hbSczMto2mFZ_-X4x2tu-79" edge="1">
          <mxGeometry relative="1" as="geometry">
            <mxPoint x="109" y="1236" as="sourcePoint" />
            <mxPoint x="53" y="1369.5" as="targetPoint" />
            <Array as="points" />
          </mxGeometry>
        </mxCell>
        <mxCell id="hbSczMto2mFZ_-X4x2tu-90" value="" style="endArrow=classic;html=1;rounded=0;strokeColor=#FF0000;exitX=0.5;exitY=1;exitDx=0;exitDy=0;" parent="1" source="hbSczMto2mFZ_-X4x2tu-78" target="hbSczMto2mFZ_-X4x2tu-81" edge="1">
          <mxGeometry width="50" height="50" relative="1" as="geometry">
            <mxPoint x="517" y="1469" as="sourcePoint" />
            <mxPoint x="507" y="1575" as="targetPoint" />
            <Array as="points">
              <mxPoint x="477" y="1631" />
              <mxPoint x="198" y="1631" />
            </Array>
          </mxGeometry>
        </mxCell>
        <mxCell id="hbSczMto2mFZ_-X4x2tu-91" value="" style="endArrow=classic;html=1;rounded=0;entryX=0.5;entryY=0;entryDx=0;entryDy=0;dashed=1;endFill=1;startArrow=classic;startFill=1;" parent="1" source="hbSczMto2mFZ_-X4x2tu-81" target="hbSczMto2mFZ_-X4x2tu-74" edge="1">
          <mxGeometry relative="1" as="geometry">
            <mxPoint x="295" y="1580" as="sourcePoint" />
            <mxPoint x="467" y="1580" as="targetPoint" />
            <Array as="points">
              <mxPoint x="265" y="1524" />
            </Array>
          </mxGeometry>
        </mxCell>
        <mxCell id="jWRVITuvIfbzKBPk1eNq-1" value="" style="endArrow=none;html=1;rounded=0;strokeColor=#FF0000;startArrow=classic;startFill=1;endFill=0;" edge="1" parent="1">
          <mxGeometry relative="1" as="geometry">
            <mxPoint x="344" y="978" as="sourcePoint" />
            <mxPoint x="229" y="978" as="targetPoint" />
          </mxGeometry>
        </mxCell>
        <mxCell id="jWRVITuvIfbzKBPk1eNq-2" value="&lt;font color=&quot;#ff0000&quot;&gt;Control&lt;/font&gt;" style="edgeLabel;resizable=0;html=1;align=center;verticalAlign=middle;" connectable="0" vertex="1" parent="jWRVITuvIfbzKBPk1eNq-1">
          <mxGeometry relative="1" as="geometry" />
        </mxCell>
      </root>
    </mxGraphModel>
  </diagram>
</mxfile>
